<svg viewBox="0 0 193 64" id="header-logo-ru" width="100%" height="100%"><g fill="none" fill-rule="evenodd"><path fill="#2C2C2B" d="M24.245 9.525c-6.882 10.642-14.01 20.45-14.01 28.187 0 7.737 6.273 14.01 14.01 14.01s14.01-6.273 14.01-14.01c0-7.736-7.128-17.545-14.01-28.187z"></path><path fill="#FFF" d="M27.911 47.36a10.32 10.32 0 0 0 6.653-9.648c0-3.116-1.57-7.67-3.823-12.44-.545-1.1-1.434-.817-1.008.366 1.4 3.77 2.334 7.287 2.334 9.785 0 4.15-2.268 7.665-5.405 8.881-2.322.978-1.437 4.107 1.25 3.057z"></path><path fill="#96C024" d="M34.17 49.969v13.99h14.201V.542h-14.2V21.37c3.404 5.935 5.755 11.406 5.755 16.191 0 4.974-2.237 9.425-5.756 12.408zM14.318 21.372V.542H.12v63.417h14.2v-13.99A16.22 16.22 0 0 1 8.563 37.56c0-4.785 2.35-10.254 5.754-16.19z"></path><path d="M89.094 26.713h9.801V20.53c0-3.929-2.567-4.084-4.59-4.084h-4.511c-3.034 0-4.667.894-4.667 4.59v8.362c0 3.385.7 5.141 4.472 5.141 3.098 0 6.19.01 9.296.01v-3.4h-9.801v-4.435zm0-6.923h5.95v3.928h-5.95V19.79zm35.356 9.53V21.5c0-3.5-1.361-4.978-4.862-4.978h-11.746c-3.5 0-4.862 1.478-4.862 4.978v7.819c0 3.889.972 5.095 4.784 5.095h3.89v7.397h4.123v-7.397h3.89c3.81 0 4.783-1.206 4.783-5.095zm-4.084 1.711h-4.589V19.907h4.59v11.124zm-8.712 0h-4.59V19.907h4.59v11.124zm17.852-11.124h2.685v14.508h4.006V19.907H141v-3.384h-13.614v3.384zm19.584 14.508l5.445-10.697h.078v10.697h4.006V16.523h-4.084L149.09 27.14h-.078V16.523h-4.006v17.892zm26.76-14.508v-3.384h-8.362c-3.734 0-4.784 1.594-4.784 4.94v8.324c0 3.772 1.944 4.628 5.329 4.628h7.818V31.03h-9.063V19.907h9.062zm16.829.816c0-2.684-1.129-4.2-3.928-4.2h-8.448v3.384h8.37v4.473h-5.368c-4.434 0-4.55 2.489-4.55 5.523 0 3.968 2.178 4.512 5.484 4.512h8.44V20.723zm-9.802 6.808h5.796v3.694h-5.796v-3.694zM76.865 34.415h4.294v-24.07h-4.294v10.161h-7.807V10.344h-4.294v24.07h4.294V24.253h7.807z" fill="#945523"></path><path d="M70.73 49.11v5.045h1.56v-10.99h-1.56v4.604h-4.405v-4.605h-1.56v10.99h1.56V49.11h4.405zm9.159 3.741h-4.203c-.459 0-.495-.238-.495-.568v-1.616h4.698v-3.325c0-1.117-.458-1.52-1.615-1.52h-2.79c-1.194 0-1.744.586-1.744 1.703v5.326c0 .734.422 1.304 1.395 1.304h4.754V52.85zm-1.45-3.396h-3.248V47.6c0-.257.128-.456.477-.456h2.33c.33 0 .441.128.441.51v1.802zm11.656 3.158v-5.268c0-.937-.294-1.523-1.615-1.523h-5.543c-1.157 0-1.616.586-1.616 1.523v5.268c0 .935.386 1.542 1.616 1.542h2.092v3.343h1.376v-3.343h2.057c1.395 0 1.633-.607 1.633-1.542zm-1.469-.327c0 .272-.09.565-.458.565h-1.781v-5.708h1.781c.367 0 .458.276.458.548v4.595zm-3.616.565h-1.817c-.44 0-.44-.275-.44-.547v-4.613c0-.272.129-.548.44-.548h1.817v5.708zm11.708-7.029h-5.706v1.32h2.128v7.013h1.45v-7.012h2.128v-1.321zm13.107 4.679v3.654h1.45v-8.333h-1.45v3.358h-3.138v-3.358h-1.45v8.333h1.45V50.5zm9.088 2.35v-5.326c0-.97-.39-1.703-1.727-1.703h-3.54v1.302h3.357a.47.47 0 0 1 .477.456v1.82h-3.138c-1.175 0-1.616.551-1.616 1.524v1.707c0 1.102.275 1.524 1.487 1.524h4.7V52.85zm-1.433 0h-2.771c-.478 0-.533-.312-.533-.642v-.863c0-.385.055-.66.533-.66h2.77v2.165zm8.647-7.029h-4.203c-.863 0-1.56.348-1.56 1.32v1.53c0 .527.311.968.752 1.004v.073c-.441.074-.79.477-.79 1.193v3.213h1.432v-3.066c0-.385.11-.66.477-.66h2.442v3.726h1.45v-8.333zm-1.45 3.45h-2.33c-.534 0-.534-.309-.534-.6v-.93c0-.327 0-.6.44-.6h2.424v2.13zm13.288 3.579v-1.909c0-1.1-.331-1.67-1.798-1.67h-.882l2.68-3.45h-1.636l-3.063 3.873v-3.873h-1.45v8.333h1.45v-3.708h2.626c.605 0 .641.332.641.771v2.937h1.432V52.85zm7.765-.238v-5.268c0-.937-.275-1.523-1.634-1.523h-3.084c-1.157 0-1.615.586-1.615 1.523v5.268c0 .935.368 1.542 1.615 1.542h3.102c1.377 0 1.616-.607 1.616-1.542zm-1.431-.327c0 .272-.074.565-.46.565h-2.55c-.442 0-.46-.275-.46-.547v-4.613c0-.272.092-.548.46-.548h2.55c.386 0 .46.276.46.548v4.595zm10.683.565v-7.029h-2.001l-1.817 4.432-1.983-4.432h-2.018v8.333h1.43v-6.391h.038l2.018 4.43h.955l1.91-4.43h.036v6.391h1.432zm7.782 0v-7.029h-6.333v8.333h1.45v-7.012h3.433v7.012h1.45zm21.163-4.444v5.748h1.45v-8.333h-1.559l-2.992 5.748h-.037v-5.748h-1.45v8.333h1.56l2.991-5.748zM170.4 52.851v-5.326c0-.97-.388-1.703-1.726-1.703h-3.54v1.302h3.357a.47.47 0 0 1 .477.456v1.82h-3.138c-1.175 0-1.616.551-1.616 1.524v1.707c0 1.102.275 1.524 1.487 1.524h4.7V52.85zm-1.432 0h-2.771c-.478 0-.533-.312-.533-.642v-.863c0-.385.055-.66.533-.66h2.77v2.165zm7.471-2.35v3.654h1.45v-8.333h-1.45v3.358H173.3v-3.358h-1.45v8.333h1.45V50.5zm16.171-4.679h-4.204c-.863 0-1.56.348-1.56 1.32v1.53c0 .527.311.968.752 1.004v.073c-.44.074-.79.477-.79 1.193v3.213h1.433v-3.066c0-.385.11-.66.477-.66h2.442v3.726h1.45v-8.333zm-1.45 3.45h-2.332c-.532 0-.532-.309-.532-.6v-.93c0-.327 0-.6.44-.6h2.424v2.13zm-87.374-3.45h-4.203c-.863 0-1.56.348-1.56 1.32v1.53c0 .527.311.968.752 1.004v.073c-.44.074-.79.477-.79 1.193v3.213h1.432v-3.066c0-.385.11-.66.478-.66h2.442v3.726h1.45v-8.333zm-1.45 3.45h-2.33c-.533 0-.533-.309-.533-.6v-.93c0-.327 0-.6.44-.6h2.424v2.13z" fill="#1F211D"></path></g></svg>