<?xml version="1.0" encoding="UTF-8" standalone="no"?>
<!-- Created with Inkscape (http://www.inkscape.org/) -->

<svg
   version="1.1"
   id="svg1"
   width="637.33331"
   height="177.33333"
   viewBox="0 0 637.33331 177.33333"
   sodipodi:docname="PR_PODSTROCHNIK_logo_rus_white.eps"
   xmlns:inkscape="http://www.inkscape.org/namespaces/inkscape"
   xmlns:sodipodi="http://sodipodi.sourceforge.net/DTD/sodipodi-0.dtd"
   xmlns="http://www.w3.org/2000/svg"
   xmlns:svg="http://www.w3.org/2000/svg">
  <defs
     id="defs1" />
  <sodipodi:namedview
     id="namedview1"
     pagecolor="#ffffff"
     bordercolor="#000000"
     borderopacity="0.25"
     inkscape:showpageshadow="2"
     inkscape:pageopacity="0.0"
     inkscape:pagecheckerboard="0"
     inkscape:deskcolor="#d1d1d1">
    <inkscape:page
       x="0"
       y="0"
       inkscape:label="1"
       id="page1"
       width="637.33331"
       height="177.33333"
       margin="0"
       bleed="0" />
  </sodipodi:namedview>
  <g
     id="g1"
     inkscape:groupmode="layer"
     inkscape:label="1">
    <path
       id="path1"
       d="m 647.688,48.582 v 194.106 l -20.836,8.535 c -12.118,4.734 -120.907,50.511 -227.008,155.933 v 0 c -60.965,60.5 -109.211,129.071 -143.758,204.176 v 0 c -42.824,92.898 -64.477,196.563 -64.477,307.75 v 0 100.928 l 456.079,102.12 v 207.96 L 1.93359,1175.47 V 943.32 c 0,-145.511 30.02341,-281.238 88.96091,-403.625 v 0 C 138.613,440.711 205.156,350.176 288.809,270.703 v 0 C 434.188,133.336 585.063,72.8477 601.781,66.4102 v 0 L 647.688,48.582"
       style="fill:#ffffff;fill-opacity:1;fill-rule:evenodd;stroke:none"
       transform="matrix(0.13333333,0,0,-0.13333333,0,177.33333)" />
    <path
       id="path2"
       d="m 647.688,48.582 v 194.106 l -20.836,8.535 c -12.118,4.734 -120.907,50.511 -227.008,155.933 v 0 c -60.965,60.5 -109.211,129.071 -143.758,204.176 v 0 c -42.824,92.898 -64.477,196.563 -64.477,307.75 v 0 100.928 L 1.93359,1175.47 V 943.32 c 0,-145.511 30.02341,-281.238 88.96091,-403.625 v 0 C 138.613,440.711 205.156,350.176 288.809,270.703 v 0 C 434.188,133.336 585.063,72.8477 601.781,66.4102 v 0 L 647.688,48.582"
       style="fill:#ffffff;fill-opacity:1;fill-rule:evenodd;stroke:none"
       transform="matrix(0.13333333,0,0,-0.13333333,0,177.33333)" />
    <path
       id="path3"
       d="M 1259.38,498.363 V 932.93 H 876.211 V 498.363 H 982.289 V 846.938 H 1153.37 V 498.363 h 106.01"
       style="fill:#ffffff;fill-opacity:1;fill-rule:nonzero;stroke:none"
       transform="matrix(0.13333333,0,0,-0.13333333,0,177.33333)" />
    <path
       id="path4"
       d="m 1492.88,706.563 c -13.91,0 -23.46,0.675 -31.25,1.898 l -6.05,1.031 v 142.406 l 5.88,0.879 c 7.03,1.481 19.86,3.078 39.69,3.078 53.26,0 85.07,-26.593 85.07,-70.628 0,-48.59 -35.75,-78.664 -93.34,-78.664 z m 148.04,190.269 c -32.04,25.492 -79.4,37.957 -145.3,37.957 -58.04,0 -106.66,-3.441 -145.01,-9.746 V 496.57 h 104.97 v 131.66 l 7.96,-0.804 c 7.89,-0.672 17.97,-1.078 29.88,-1.078 67.29,0 119.07,16.515 154.39,49.773 27.91,26.395 43.46,66.137 43.46,111.809 0,43.937 -18.54,83.761 -50.35,108.902"
       style="fill:#ffffff;fill-opacity:1;fill-rule:nonzero;stroke:none"
       transform="matrix(0.13333333,0,0,-0.13333333,0,177.33333)" />
    <path
       id="path5"
       d="m 4623.56,606.844 c -27.31,-26.246 -66.61,-39.692 -116.54,-39.692 -12.73,0 -25.2,0 -34.04,1.2 l -6.13,0.968 v 287.262 l 5.73,1.008 c 12.57,2.055 27.13,3.211 43.93,3.211 47.06,0 85.82,-13.039 111.7,-38.102 26.5,-25.586 39.63,-61.886 39.38,-108.164 0,-55.258 -16.84,-82.187 -44.03,-107.691 z m 156.82,111.297 c 0,74.468 -27.83,133.355 -80.23,170.734 -46.21,33.344 -106.6,48.199 -194.95,48.199 -53.46,0 -104.91,-3.172 -144.63,-9.074 V 495.961 c 36.23,-4.379 76.86,-6.625 121.25,-6.625 96.87,0 170.72,19.684 219.72,58.793 40.74,32.832 78.84,76.246 78.84,170.012"
       style="fill:#ffffff;fill-opacity:1;fill-rule:nonzero;stroke:none"
       transform="matrix(0.13333333,0,0,-0.13333333,0,177.33333)" />
    <path
       id="path6"
       d="m 4268.2,847.879 v 85.828 H 3973.21 V 499.105 h 294.99 v 86.114 h -188.63 v 88.765 h 188.63 v 85.305 h -188.63 v 88.59 h 188.63"
       style="fill:#ffffff;fill-opacity:1;fill-rule:nonzero;stroke:none"
       transform="matrix(0.13333333,0,0,-0.13333333,0,177.33333)" />
    <path
       id="path7"
       d="m 2780.6,499.105 v 434.602 h -128.85 c -6.52,-10.293 -31.34,-48.691 -117.23,-178.344 l -5.88,-8.925 -5.68,8.925 c -86.41,129.653 -110.83,168.051 -117.51,178.344 H 2276.53 V 499.105 h 106.37 v 315.926 l 12.56,-18.121 c 86.58,-122.644 110.35,-157.844 116.76,-167.875 h 32.93 c 6.43,10.031 30.17,45.258 116.5,167.875 l 12.89,18.121 V 499.105 h 106.06"
       style="fill:#ffffff;fill-opacity:1;fill-rule:nonzero;stroke:none"
       transform="matrix(0.13333333,0,0,-0.13333333,0,177.33333)" />
    <path
       id="path8"
       d="m 1978.25,578.352 c -77.31,0 -140.47,62.882 -140.47,140.015 0,76.969 63.16,139.785 140.47,139.785 77.86,0 140.89,-62.816 140.89,-139.785 0,-77.133 -63.03,-140.015 -140.89,-140.015 z m 0,384.265 c -134.99,0 -245.24,-109.496 -245.24,-244.25 0,-134.719 110.25,-244.387 245.24,-244.387 135.54,0 245.47,109.668 245.47,244.387 0,134.754 -109.93,244.25 -245.47,244.25"
       style="fill:#ffffff;fill-opacity:1;fill-rule:nonzero;stroke:none"
       transform="matrix(0.13333333,0,0,-0.13333333,0,177.33333)" />
    <path
       id="path9"
       d="m 3880.68,499.105 v 434.602 h -128.63 c -6.64,-10.293 -31.3,-48.625 -117.39,-178.344 l -5.78,-8.925 -5.9,8.925 c -86.29,129.653 -110.71,168.051 -117.29,178.344 H 3376.71 V 499.105 h 106.33 v 315.926 l 12.64,-18.121 C 3582.42,674.266 3606,639.066 3612.39,629.035 h 32.84 c 6.45,10.031 30.08,45.258 116.63,167.875 l 12.69,18.121 V 499.105 h 106.13"
       style="fill:#ffffff;fill-opacity:1;fill-rule:nonzero;stroke:none"
       transform="matrix(0.13333333,0,0,-0.13333333,0,177.33333)" />
    <path
       id="path10"
       d="m 3078.52,578.352 c -77.19,0 -140.39,62.882 -140.39,140.015 0,76.969 63.2,139.785 140.39,139.785 77.52,0 140.96,-62.816 140.96,-139.785 0,-77.133 -63.44,-140.015 -140.96,-140.015 z m 0,384.265 c -135.06,0 -245.19,-109.496 -245.19,-244.25 0,-134.719 110.13,-244.387 245.19,-244.387 135.46,0 245.47,109.668 245.47,244.387 0,134.754 -110.01,244.25 -245.47,244.25"
       style="fill:#ffffff;fill-opacity:1;fill-rule:nonzero;stroke:none"
       transform="matrix(0.13333333,0,0,-0.13333333,0,177.33333)" />
    <path
       id="path11"
       d="M 502.082,498.648 H 647.688 V 643.609 H 502.082 V 498.648"
       style="fill:#ffffff;fill-opacity:1;fill-rule:nonzero;stroke:none"
       transform="matrix(0.13333333,0,0,-0.13333333,0,177.33333)" />
    <path
       id="path12"
       d="M 502.082,788.355 H 647.688 V 933.25 H 502.082 V 788.355"
       style="fill:#ffffff;fill-opacity:1;fill-rule:nonzero;stroke:none"
       transform="matrix(0.13333333,0,0,-0.13333333,0,177.33333)" />
    <path
       id="path13"
       d="M 356.313,643.328 H 502.082 V 788.355 H 356.313 V 643.328"
       style="fill:#ffffff;fill-opacity:1;fill-rule:nonzero;stroke:none"
       transform="matrix(0.13333333,0,0,-0.13333333,0,177.33333)" />
    <path
       id="path14"
       d="M 1259.38,498.363 V 932.93 H 876.211 V 498.363 H 982.289 V 846.938 H 1153.37 V 498.363 h 106.01"
       style="fill:#ffffff;fill-opacity:1;fill-rule:nonzero;stroke:none"
       transform="matrix(0.13333333,0,0,-0.13333333,0,177.33333)" />
    <path
       id="path15"
       d="m 1492.88,706.563 c -13.91,0 -23.46,0.675 -31.25,1.898 l -6.05,1.031 v 142.406 l 5.88,0.879 c 7.03,1.481 19.86,3.078 39.69,3.078 53.26,0 85.07,-26.593 85.07,-70.628 0,-48.59 -35.75,-78.664 -93.34,-78.664 z m 148.04,190.269 c -32.04,25.492 -79.4,37.957 -145.3,37.957 -58.04,0 -106.66,-3.441 -145.01,-9.746 V 496.57 h 104.97 v 131.66 l 7.96,-0.804 c 7.89,-0.672 17.97,-1.078 29.88,-1.078 67.29,0 119.07,16.515 154.39,49.773 27.91,26.395 43.46,66.137 43.46,111.809 0,43.937 -18.54,83.761 -50.35,108.902"
       style="fill:#ffffff;fill-opacity:1;fill-rule:nonzero;stroke:none"
       transform="matrix(0.13333333,0,0,-0.13333333,0,177.33333)" />
    <path
       id="path16"
       d="m 4623.56,606.844 c -27.31,-26.246 -66.61,-39.692 -116.54,-39.692 -12.73,0 -25.2,0 -34.04,1.2 l -6.13,0.968 v 287.262 l 5.73,1.008 c 12.57,2.055 27.13,3.211 43.93,3.211 47.06,0 85.82,-13.039 111.7,-38.102 26.5,-25.586 39.63,-61.886 39.38,-108.164 0,-55.258 -16.84,-82.187 -44.03,-107.691 z m 156.82,111.297 c 0,74.468 -27.83,133.355 -80.23,170.734 -46.21,33.344 -106.6,48.199 -194.95,48.199 -53.46,0 -104.91,-3.172 -144.63,-9.074 V 495.961 c 36.23,-4.379 76.86,-6.625 121.25,-6.625 96.87,0 170.72,19.684 219.72,58.793 40.74,32.832 78.84,76.246 78.84,170.012"
       style="fill:#ffffff;fill-opacity:1;fill-rule:nonzero;stroke:none"
       transform="matrix(0.13333333,0,0,-0.13333333,0,177.33333)" />
    <path
       id="path17"
       d="m 4268.2,847.879 v 85.828 H 3973.21 V 499.105 h 294.99 v 86.114 h -188.63 v 88.765 h 188.63 v 85.305 h -188.63 v 88.59 h 188.63"
       style="fill:#ffffff;fill-opacity:1;fill-rule:nonzero;stroke:none"
       transform="matrix(0.13333333,0,0,-0.13333333,0,177.33333)" />
    <path
       id="path18"
       d="m 2780.6,499.105 v 434.602 h -128.85 c -6.52,-10.293 -31.34,-48.691 -117.23,-178.344 l -5.88,-8.925 -5.68,8.925 c -86.41,129.653 -110.83,168.051 -117.51,178.344 H 2276.53 V 499.105 h 106.37 v 315.926 l 12.56,-18.121 c 86.58,-122.644 110.35,-157.844 116.76,-167.875 h 32.93 c 6.43,10.031 30.17,45.258 116.5,167.875 l 12.89,18.121 V 499.105 h 106.06"
       style="fill:#ffffff;fill-opacity:1;fill-rule:nonzero;stroke:none"
       transform="matrix(0.13333333,0,0,-0.13333333,0,177.33333)" />
    <path
       id="path19"
       d="m 1978.25,578.352 c -77.31,0 -140.47,62.882 -140.47,140.015 0,76.969 63.16,139.785 140.47,139.785 77.86,0 140.89,-62.816 140.89,-139.785 0,-77.133 -63.03,-140.015 -140.89,-140.015 z m 0,384.265 c -134.99,0 -245.24,-109.496 -245.24,-244.25 0,-134.719 110.25,-244.387 245.24,-244.387 135.54,0 245.47,109.668 245.47,244.387 0,134.754 -109.93,244.25 -245.47,244.25"
       style="fill:#ffffff;fill-opacity:1;fill-rule:nonzero;stroke:none"
       transform="matrix(0.13333333,0,0,-0.13333333,0,177.33333)" />
    <path
       id="path20"
       d="m 3880.68,499.105 v 434.602 h -128.63 c -6.64,-10.293 -31.3,-48.625 -117.39,-178.344 l -5.78,-8.925 -5.9,8.925 c -86.29,129.653 -110.71,168.051 -117.29,178.344 H 3376.71 V 499.105 h 106.33 v 315.926 l 12.64,-18.121 C 3582.42,674.266 3606,639.066 3612.39,629.035 h 32.84 c 6.45,10.031 30.08,45.258 116.63,167.875 l 12.69,18.121 V 499.105 h 106.13"
       style="fill:#ffffff;fill-opacity:1;fill-rule:nonzero;stroke:none"
       transform="matrix(0.13333333,0,0,-0.13333333,0,177.33333)" />
    <path
       id="path21"
       d="m 3078.52,578.352 c -77.19,0 -140.39,62.882 -140.39,140.015 0,76.969 63.2,139.785 140.39,139.785 77.52,0 140.96,-62.816 140.96,-139.785 0,-77.133 -63.44,-140.015 -140.96,-140.015 z m 0,384.265 c -135.06,0 -245.19,-109.496 -245.19,-244.25 0,-134.719 110.13,-244.387 245.19,-244.387 135.46,0 245.47,109.668 245.47,244.387 0,134.754 -110.01,244.25 -245.47,244.25"
       style="fill:#ffffff;fill-opacity:1;fill-rule:nonzero;stroke:none"
       transform="matrix(0.13333333,0,0,-0.13333333,0,177.33333)" />
    <path
       id="path22"
       d="m 876.211,212.664 h 17.09 V 76.8984 L 998.168,212.664 h 15.682 V 48.8086 H 996.766 V 184.34 L 891.895,48.8086 H 876.211 V 212.664"
       style="fill:#ffffff;fill-opacity:1;fill-rule:nonzero;stroke:none"
       transform="matrix(0.13333333,0,0,-0.13333333,0,177.33333)" />
    <path
       id="path23"
       d="m 1065.11,171.938 h 16.62 v -54.543 h 77.48 v 54.543 h 16.63 V 48.8086 h -16.63 v 54.3044 h -77.48 V 48.8086 h -16.62 V 171.938"
       style="fill:#ffffff;fill-opacity:1;fill-rule:nonzero;stroke:none"
       transform="matrix(0.13333333,0,0,-0.13333333,0,177.33333)" />
    <path
       id="path24"
       d="m 1223.12,171.938 h 16.62 v -54.543 h 77.48 v 54.543 h 16.62 V 48.8086 h -16.62 v 54.3044 h -77.48 V 48.8086 h -16.62 V 171.938"
       style="fill:#ffffff;fill-opacity:1;fill-rule:nonzero;stroke:none"
       transform="matrix(0.13333333,0,0,-0.13333333,0,177.33333)" />
    <path
       id="path25"
       d="m 1431.92,47.6367 c -11.86,0 -22.55,2.6953 -32.06,8.0781 -9.52,5.3829 -17.02,12.836 -22.48,22.3516 -5.46,9.5234 -8.19,20.2891 -8.19,32.3046 0,12.016 2.73,22.785 8.19,32.305 5.46,9.515 12.96,16.929 22.48,22.238 9.51,5.305 20.2,7.957 32.06,7.957 11.86,0 22.55,-2.652 32.07,-7.957 9.52,-5.309 16.97,-12.723 22.36,-22.238 5.38,-9.52 8.07,-20.289 8.07,-32.305 0,-12.0155 -2.69,-22.7812 -8.07,-32.3046 -5.39,-9.5156 -12.84,-16.9687 -22.36,-22.3516 -9.52,-5.3828 -20.21,-8.0781 -32.07,-8.0781 z m 0,14.75 c 8.74,0 16.58,1.9883 23.53,5.9649 6.94,3.9804 12.36,9.6406 16.27,16.9726 3.9,7.336 5.85,15.6838 5.85,25.0468 0,9.363 -1.95,17.715 -5.85,25.047 -3.91,7.336 -9.33,12.992 -16.27,16.969 -6.95,3.984 -14.79,5.972 -23.53,5.972 -8.74,0 -16.58,-1.988 -23.52,-5.972 -6.95,-3.977 -12.41,-9.633 -16.39,-16.969 -3.97,-7.332 -5.97,-15.684 -5.97,-25.047 0,-9.363 2,-17.7108 5.97,-25.0468 3.98,-7.332 9.44,-12.9922 16.39,-16.9726 6.94,-3.9766 14.78,-5.9649 23.52,-5.9649"
       style="fill:#ffffff;fill-opacity:1;fill-rule:nonzero;stroke:none"
       transform="matrix(0.13333333,0,0,-0.13333333,0,177.33333)" />
    <path
       id="path26"
       d="m 1608.42,112.477 c 16.7,-3.899 25.04,-13.9653 25.04,-30.1957 0,-10.7657 -3.97,-19.0391 -11.93,-24.8125 -7.96,-5.7735 -19.82,-8.6602 -35.58,-8.6602 H 1530 V 171.938 h 54.31 c 14.05,0 25.05,-2.735 33,-8.196 7.96,-5.461 11.94,-13.265 11.94,-23.41 0,-6.707 -1.83,-12.441 -5.5,-17.203 -3.66,-4.758 -8.77,-8.309 -15.33,-10.652 z m -62.27,4.683 h 36.99 c 9.52,0 16.81,1.793 21.89,5.383 5.07,3.594 7.6,8.82 7.6,15.684 0,6.867 -2.53,12.015 -7.6,15.449 -5.08,3.437 -12.37,5.152 -21.89,5.152 h -36.99 z m 39.1,-55.242 c 10.61,0 18.57,1.7148 23.87,5.1484 5.31,3.4336 7.96,8.8164 7.96,16.1524 0,7.3359 -2.42,12.7578 -7.26,16.2656 -4.84,3.5156 -12.48,5.2696 -22.94,5.2696 h -40.73 V 61.918 h 39.1"
       style="fill:#ffffff;fill-opacity:1;fill-rule:nonzero;stroke:none"
       transform="matrix(0.13333333,0,0,-0.13333333,0,177.33333)" />
    <path
       id="path27"
       d="m 1714.69,172.871 c 16.08,0 28.4,-4.019 36.99,-12.055 8.58,-8.035 12.87,-19.933 12.87,-35.695 V 48.8086 h -15.92 V 68 c -3.74,-6.3945 -9.24,-11.3867 -16.5,-14.9805 -7.25,-3.5859 -15.88,-5.3828 -25.86,-5.3828 -13.73,0 -24.66,3.2774 -32.78,9.8321 -8.11,6.5546 -12.17,15.2148 -12.17,25.9843 0,10.4532 3.79,18.8829 11.36,25.2809 7.56,6.395 19.62,9.598 36.16,9.598 h 39.09 v 7.488 c 0,10.614 -2.97,18.688 -8.89,24.227 -5.93,5.543 -14.59,8.312 -25.99,8.312 -7.8,0 -15.29,-1.285 -22.47,-3.863 -7.18,-2.574 -13.34,-6.125 -18.49,-10.648 l -7.49,12.406 c 6.24,5.305 13.73,9.402 22.47,12.285 8.74,2.891 17.95,4.332 27.62,4.332 z m -5.85,-112.1249 c 9.36,0 17.4,2.1484 24.11,6.4375 6.71,4.2891 11.71,10.4961 14.98,18.6094 v 20.129 h -38.62 c -21.07,0 -31.6,-7.3322 -31.6,-22.0001 0,-7.1797 2.73,-12.836 8.19,-16.9727 5.46,-4.1328 13.11,-6.2031 22.94,-6.2031"
       style="fill:#ffffff;fill-opacity:1;fill-rule:nonzero;stroke:none"
       transform="matrix(0.13333333,0,0,-0.13333333,0,177.33333)" />
    <path
       id="path28"
       d="M 1937.07,63.3203 V 17.9102 h -15.68 v 30.8984 h -112.6 V 171.938 h 16.63 V 63.3203 h 75.13 V 171.938 h 16.63 V 63.3203 h 19.89"
       style="fill:#ffffff;fill-opacity:1;fill-rule:nonzero;stroke:none"
       transform="matrix(0.13333333,0,0,-0.13333333,0,177.33333)" />
    <path
       id="path29"
       d="m 1968.91,171.938 h 16.62 V 74.0898 l 82.16,97.8482 h 14.75 V 48.8086 h -16.62 v 97.8474 l -81.93,-97.8474 h -14.98 V 171.938"
       style="fill:#ffffff;fill-opacity:1;fill-rule:nonzero;stroke:none"
       transform="matrix(0.13333333,0,0,-0.13333333,0,177.33333)" />
    <path
       id="path30"
       d="m 2129.95,171.938 h 16.62 V 74.0898 l 82.17,97.8482 h 14.74 V 48.8086 h -16.62 v 97.8474 l -81.92,-97.8474 h -14.99 V 171.938"
       style="fill:#ffffff;fill-opacity:1;fill-rule:nonzero;stroke:none"
       transform="matrix(0.13333333,0,0,-0.13333333,0,177.33333)" />
    <path
       id="path31"
       d="m 2430.75,112.477 c 16.7,-3.899 25.05,-13.9653 25.05,-30.1957 0,-10.7657 -3.98,-19.0391 -11.94,-24.8125 -7.96,-5.7735 -19.82,-8.6602 -35.58,-8.6602 h -55.95 V 171.938 h 54.31 c 14.05,0 25.05,-2.735 33,-8.196 7.97,-5.461 11.94,-13.265 11.94,-23.41 0,-6.707 -1.83,-12.441 -5.5,-17.203 -3.66,-4.758 -8.78,-8.309 -15.33,-10.652 z m -62.27,4.683 h 36.99 c 9.52,0 16.82,1.793 21.89,5.383 5.07,3.594 7.6,8.82 7.6,15.684 0,6.867 -2.53,12.015 -7.6,15.449 -5.07,3.437 -12.37,5.152 -21.89,5.152 h -36.99 z m 39.1,-55.242 c 10.61,0 18.56,1.7148 23.87,5.1484 5.31,3.4336 7.96,8.8164 7.96,16.1524 0,7.3359 -2.42,12.7578 -7.25,16.2656 -4.84,3.5156 -12.49,5.2696 -22.95,5.2696 h -40.73 V 61.918 h 39.1"
       style="fill:#ffffff;fill-opacity:1;fill-rule:nonzero;stroke:none"
       transform="matrix(0.13333333,0,0,-0.13333333,0,177.33333)" />
    <path
       id="path32"
       d="m 2615.68,168.891 c 11.39,0 21.57,-2.536 30.55,-7.606 8.97,-5.07 15.95,-12.172 20.95,-21.301 4.99,-9.129 7.48,-19.546 7.48,-31.25 0,-12.0152 -2.61,-22.6676 -7.84,-31.9527 -5.23,-9.2852 -12.52,-16.504 -21.89,-21.6524 -9.36,-5.1484 -20.13,-7.7226 -32.29,-7.7226 -20.45,0 -36.29,7.1757 -47.53,21.5351 -11.23,14.3555 -16.85,34.1716 -16.85,59.4566 0,26.372 5.03,46.582 15.1,60.625 10.07,14.047 25.78,23.567 47.17,28.559 l 55.24,12.641 2.81,-15.215 -51.97,-11.938 c -17.63,-3.902 -30.58,-10.808 -38.86,-20.718 -8.27,-9.911 -12.79,-24.539 -13.57,-43.891 4.99,9.519 11.93,16.973 20.83,22.355 8.9,5.383 19.12,8.075 30.67,8.075 z M 2613.1,61.2148 c 8.58,0 16.27,1.9922 23.06,5.9688 6.79,3.9805 12.09,9.5586 15.91,16.7383 3.83,7.1758 5.74,15.2929 5.74,24.3441 0,9.05 -1.87,17.011 -5.62,23.875 -3.74,6.867 -9.01,12.211 -15.8,16.035 -6.78,3.824 -14.55,5.734 -23.29,5.734 -8.74,0 -16.5,-1.91 -23.29,-5.734 -6.79,-3.824 -12.09,-9.168 -15.92,-16.035 -3.82,-6.864 -5.73,-14.825 -5.73,-23.875 0,-9.0512 1.91,-17.1683 5.73,-24.3441 3.83,-7.1797 9.17,-12.7578 16.04,-16.7383 6.87,-3.9766 14.59,-5.9688 23.17,-5.9688"
       style="fill:#ffffff;fill-opacity:1;fill-rule:nonzero;stroke:none"
       transform="matrix(0.13333333,0,0,-0.13333333,0,177.33333)" />
    <path
       id="path33"
       d="m 2710.25,171.938 h 16.62 V 74.0898 l 82.16,97.8482 h 14.75 V 48.8086 h -16.62 v 97.8474 l -81.93,-97.8474 h -14.98 V 171.938"
       style="fill:#ffffff;fill-opacity:1;fill-rule:nonzero;stroke:none"
       transform="matrix(0.13333333,0,0,-0.13333333,0,177.33333)" />
    <path
       id="path34"
       d="m 2922.09,47.6367 c -11.86,0 -22.55,2.6953 -32.07,8.0781 -9.52,5.3829 -17.01,12.836 -22.47,22.3516 -5.46,9.5234 -8.19,20.2891 -8.19,32.3046 0,12.016 2.73,22.785 8.19,32.305 5.46,9.515 12.95,16.929 22.47,22.238 9.52,5.305 20.21,7.957 32.07,7.957 11.86,0 22.55,-2.652 32.07,-7.957 9.52,-5.309 16.97,-12.723 22.36,-22.238 5.38,-9.52 8.07,-20.289 8.07,-32.305 0,-12.0155 -2.69,-22.7812 -8.07,-32.3046 -5.39,-9.5156 -12.84,-16.9687 -22.36,-22.3516 -9.52,-5.3828 -20.21,-8.0781 -32.07,-8.0781 z m 0,14.75 c 8.74,0 16.58,1.9883 23.52,5.9649 6.95,3.9804 12.37,9.6406 16.28,16.9726 3.9,7.336 5.84,15.6838 5.84,25.0468 0,9.363 -1.94,17.715 -5.84,25.047 -3.91,7.336 -9.33,12.992 -16.28,16.969 -6.94,3.984 -14.78,5.972 -23.52,5.972 -8.74,0 -16.58,-1.988 -23.52,-5.972 -6.95,-3.977 -12.41,-9.633 -16.39,-16.969 -3.98,-7.332 -5.97,-15.684 -5.97,-25.047 0,-9.363 1.99,-17.7108 5.97,-25.0468 3.98,-7.332 9.44,-12.9922 16.39,-16.9726 6.94,-3.9766 14.78,-5.9649 23.52,-5.9649"
       style="fill:#ffffff;fill-opacity:1;fill-rule:nonzero;stroke:none"
       transform="matrix(0.13333333,0,0,-0.13333333,0,177.33333)" />
    <path
       id="path35"
       d="m 3168.81,110.605 c 0,-19.1948 -6.32,-34.2534 -18.96,-45.1753 -12.64,-10.9258 -30.51,-16.8555 -53.6,-17.793 V 3.39844 H 3080.1 V 47.4063 c -22.94,0.9335 -40.69,6.9023 -53.26,17.9062 -12.56,11 -18.84,26.0977 -18.84,45.2925 0,19.04 6.28,33.942 18.84,44.711 12.57,10.766 30.32,16.622 53.26,17.555 V 222.5 h 16.15 v -49.629 c 23.09,-1.09 40.96,-7.019 53.6,-17.789 12.64,-10.769 18.96,-25.594 18.96,-44.477 z m -144.43,0 c 0,-14.6675 4.72,-26.1362 14.17,-34.4097 9.44,-8.2695 23.29,-12.9531 41.55,-14.043 v 95.9727 c -18.11,-0.937 -31.92,-5.5 -41.44,-13.691 -9.52,-8.196 -14.28,-19.469 -14.28,-33.829 z m 71.87,-48.4527 c 18.26,0.9336 32.18,5.5391 41.78,13.8086 9.6,8.2735 14.4,19.8204 14.4,34.6441 0,14.516 -4.8,25.829 -14.4,33.942 -9.6,8.117 -23.52,12.641 -41.78,13.578 V 62.1523"
       style="fill:#ffffff;fill-opacity:1;fill-rule:nonzero;stroke:none"
       transform="matrix(0.13333333,0,0,-0.13333333,0,177.33333)" />
    <path
       id="path36"
       d="m 3245.59,172.871 c 16.08,0 28.41,-4.019 36.99,-12.055 8.58,-8.035 12.87,-19.933 12.87,-35.695 V 48.8086 h -15.92 V 68 c -3.74,-6.3945 -9.24,-11.3867 -16.5,-14.9805 -7.26,-3.5859 -15.88,-5.3828 -25.87,-5.3828 -13.73,0 -24.65,3.2774 -32.77,9.8321 -8.11,6.5546 -12.17,15.2148 -12.17,25.9843 0,10.4532 3.78,18.8829 11.35,25.2809 7.57,6.395 19.63,9.598 36.17,9.598 h 39.09 v 7.488 c 0,10.614 -2.97,18.688 -8.9,24.227 -5.93,5.543 -14.59,8.312 -25.98,8.312 -7.8,0 -15.29,-1.285 -22.47,-3.863 -7.18,-2.574 -13.34,-6.125 -18.49,-10.648 l -7.49,12.406 c 6.24,5.305 13.73,9.402 22.47,12.285 8.74,2.891 17.95,4.332 27.62,4.332 z m -5.85,-112.1249 c 9.36,0 17.4,2.1484 24.11,6.4375 6.71,4.2891 11.7,10.4961 14.98,18.6094 v 20.129 h -38.62 c -21.07,0 -31.6,-7.3322 -31.6,-22.0001 0,-7.1797 2.73,-12.836 8.19,-16.9727 5.46,-4.1328 13.11,-6.2031 22.94,-6.2031"
       style="fill:#ffffff;fill-opacity:1;fill-rule:nonzero;stroke:none"
       transform="matrix(0.13333333,0,0,-0.13333333,0,177.33333)" />
    <path
       id="path37"
       d="m 3403.13,172.871 c 11.55,0 22.01,-2.613 31.37,-7.844 9.36,-5.226 16.7,-12.597 22,-22.117 5.3,-9.519 7.96,-20.367 7.96,-32.539 0,-12.328 -2.66,-23.2538 -7.96,-32.7694 -5.3,-9.5196 -12.6,-16.8946 -21.89,-22.1211 -9.28,-5.2305 -19.78,-7.8438 -31.48,-7.8438 -9.99,0 -19,2.0703 -27.04,6.2031 -8.04,4.1368 -14.63,10.1836 -19.77,18.1407 V 3.39844 h -16.63 V 171.938 h 15.92 V 147.59 c 5,8.117 11.59,14.359 19.78,18.73 8.2,4.368 17.44,6.551 27.74,6.551 z m -1.17,-110.4843 c 8.58,0 16.38,1.9883 23.41,5.9649 7.02,3.9804 12.52,9.6406 16.5,16.9726 3.98,7.336 5.97,15.6838 5.97,25.0468 0,9.363 -1.99,17.676 -5.97,24.93 -3.98,7.258 -9.48,12.914 -16.5,16.972 -7.03,4.055 -14.83,6.086 -23.41,6.086 -8.74,0 -16.58,-2.031 -23.53,-6.086 -6.94,-4.058 -12.4,-9.714 -16.38,-16.972 -3.98,-7.254 -5.97,-15.567 -5.97,-24.93 0,-9.363 1.99,-17.7108 5.97,-25.0468 3.98,-7.332 9.44,-12.9922 16.38,-16.9726 6.95,-3.9766 14.79,-5.9649 23.53,-5.9649"
       style="fill:#ffffff;fill-opacity:1;fill-rule:nonzero;stroke:none"
       transform="matrix(0.13333333,0,0,-0.13333333,0,177.33333)" />
    <path
       id="path38"
       d="M 3637.91,171.938 V 48.8086 h -15.21 v 97.3794 l -49.86,-82.3989 h -7.49 l -49.86,82.6289 V 48.8086 h -15.22 V 171.938 h 16.86 l 52.2,-88.7192 53.13,88.7192 h 15.45"
       style="fill:#ffffff;fill-opacity:1;fill-rule:nonzero;stroke:none"
       transform="matrix(0.13333333,0,0,-0.13333333,0,177.33333)" />
    <path
       id="path39"
       d="m 3727.57,172.871 c 16.07,0 28.4,-4.019 36.98,-12.055 8.59,-8.035 12.88,-19.933 12.88,-35.695 V 48.8086 h -15.92 V 68 c -3.75,-6.3945 -9.25,-11.3867 -16.51,-14.9805 -7.25,-3.5859 -15.87,-5.3828 -25.86,-5.3828 -13.73,0 -24.66,3.2774 -32.77,9.8321 -8.12,6.5546 -12.17,15.2148 -12.17,25.9843 0,10.4532 3.78,18.8829 11.35,25.2809 7.57,6.395 19.62,9.598 36.16,9.598 h 39.09 v 7.488 c 0,10.614 -2.96,18.688 -8.89,24.227 -5.93,5.543 -14.59,8.312 -25.98,8.312 -7.8,0 -15.3,-1.285 -22.47,-3.863 -7.18,-2.574 -13.35,-6.125 -18.5,-10.648 l -7.49,12.406 c 6.24,5.305 13.74,9.402 22.48,12.285 8.73,2.891 17.94,4.332 27.62,4.332 z m -5.86,-112.1249 c 9.37,0 17.4,2.1484 24.11,6.4375 6.72,4.2891 11.71,10.4961 14.98,18.6094 v 20.129 h -38.62 c -21.07,0 -31.6,-7.3322 -31.6,-22.0001 0,-7.1797 2.73,-12.836 8.19,-16.9727 5.47,-4.1328 13.11,-6.2031 22.94,-6.2031"
       style="fill:#ffffff;fill-opacity:1;fill-rule:nonzero;stroke:none"
       transform="matrix(0.13333333,0,0,-0.13333333,0,177.33333)" />
    <path
       id="path40"
       d="M 3949.95,63.3203 V 17.9102 h -15.69 V 48.8086 H 3821.67 V 171.938 h 16.62 V 63.3203 h 75.14 V 171.938 h 16.62 V 63.3203 h 19.9"
       style="fill:#ffffff;fill-opacity:1;fill-rule:nonzero;stroke:none"
       transform="matrix(0.13333333,0,0,-0.13333333,0,177.33333)" />
    <path
       id="path41"
       d="m 4089.46,105.223 h -103 c 0.94,-12.7972 5.86,-23.1371 14.75,-31.016 8.9,-7.8789 20.13,-11.8203 33.71,-11.8203 7.64,0 14.67,1.3633 21.06,4.0977 6.4,2.7265 11.95,6.7461 16.63,12.0547 l 9.36,-10.7696 c -5.47,-6.5547 -12.29,-11.5468 -20.48,-14.9804 -8.2,-3.4336 -17.21,-5.1524 -27.04,-5.1524 -12.64,0 -23.84,2.6953 -33.59,8.0781 -9.75,5.3829 -17.36,12.836 -22.82,22.3516 -5.47,9.5234 -8.2,20.2891 -8.2,32.3046 0,12.016 2.62,22.785 7.84,32.305 5.23,9.515 12.41,16.929 21.54,22.238 9.13,5.305 19.39,7.957 30.78,7.957 11.39,0 21.62,-2.652 30.67,-7.957 9.05,-5.309 16.15,-12.68 21.3,-22.121 5.15,-9.441 7.72,-20.25 7.72,-32.422 z M 4030,158.594 c -11.86,0 -21.81,-3.785 -29.84,-11.356 -8.04,-7.566 -12.61,-17.437 -13.7,-29.609 h 87.31 c -1.09,12.172 -5.65,22.043 -13.69,29.609 -8.03,7.571 -18.06,11.356 -30.08,11.356"
       style="fill:#ffffff;fill-opacity:1;fill-rule:nonzero;stroke:none"
       transform="matrix(0.13333333,0,0,-0.13333333,0,177.33333)" />
    <path
       id="path42"
       d="m 4204.86,112.477 c 16.7,-3.899 25.05,-13.9653 25.05,-30.1957 0,-10.7657 -3.98,-19.0391 -11.94,-24.8125 -7.96,-5.7735 -19.82,-8.6602 -35.58,-8.6602 h -55.94 V 171.938 h 54.3 c 14.05,0 25.05,-2.735 33,-8.196 7.96,-5.461 11.95,-13.265 11.95,-23.41 0,-6.707 -1.84,-12.441 -5.5,-17.203 -3.67,-4.758 -8.78,-8.309 -15.34,-10.652 z m -62.27,4.683 h 36.99 c 9.52,0 16.81,1.793 21.89,5.383 5.07,3.594 7.6,8.82 7.6,15.684 0,6.867 -2.53,12.015 -7.6,15.449 -5.08,3.437 -12.37,5.152 -21.89,5.152 h -36.99 z m 39.1,-55.242 c 10.61,0 18.57,1.7148 23.87,5.1484 5.31,3.4336 7.96,8.8164 7.96,16.1524 0,7.3359 -2.41,12.7578 -7.25,16.2656 -4.84,3.5156 -12.49,5.2696 -22.95,5.2696 h -40.73 V 61.918 h 39.1"
       style="fill:#ffffff;fill-opacity:1;fill-rule:nonzero;stroke:none"
       transform="matrix(0.13333333,0,0,-0.13333333,0,177.33333)" />
    <path
       id="path43"
       d="m 4355.38,157.188 h -46.59 V 48.8086 h -16.62 V 157.188 h -46.58 v 14.75 h 109.79 v -14.75"
       style="fill:#ffffff;fill-opacity:1;fill-rule:nonzero;stroke:none"
       transform="matrix(0.13333333,0,0,-0.13333333,0,177.33333)" />
    <path
       id="path44"
       d="m 4379.49,171.938 h 16.62 V 74.0898 l 82.16,97.8482 h 14.75 V 48.8086 h -16.62 v 97.8474 l -81.93,-97.8474 h -14.98 V 171.938"
       style="fill:#ffffff;fill-opacity:1;fill-rule:nonzero;stroke:none"
       transform="matrix(0.13333333,0,0,-0.13333333,0,177.33333)" />
    <path
       id="path45"
       d="m 4585.25,103.582 h -28.09 V 48.8086 h -16.62 V 171.938 h 16.62 v -54.075 h 28.32 l 43.31,54.075 h 18.02 l -48.46,-59.692 51.97,-63.4374 h -19.66 l -45.41,54.7734"
       style="fill:#ffffff;fill-opacity:1;fill-rule:nonzero;stroke:none"
       transform="matrix(0.13333333,0,0,-0.13333333,0,177.33333)" />
    <path
       id="path46"
       d="m 4779.77,105.223 h -103 c 0.93,-12.7972 5.85,-23.1371 14.75,-31.016 8.89,-7.8789 20.13,-11.8203 33.71,-11.8203 7.64,0 14.66,1.3633 21.06,4.0977 6.4,2.7265 11.94,6.7461 16.62,12.0547 l 9.36,-10.7696 c -5.46,-6.5547 -12.29,-11.5468 -20.48,-14.9804 -8.19,-3.4336 -17.2,-5.1524 -27.03,-5.1524 -12.65,0 -23.84,2.6953 -33.59,8.0781 -9.76,5.3829 -17.37,12.836 -22.83,22.3516 -5.46,9.5234 -8.19,20.2891 -8.19,32.3046 0,12.016 2.61,22.785 7.84,32.305 5.23,9.515 12.41,16.929 21.54,22.238 9.13,5.305 19.39,7.957 30.78,7.957 11.39,0 21.62,-2.652 30.67,-7.957 9.05,-5.309 16.15,-12.68 21.29,-22.121 5.16,-9.441 7.73,-20.25 7.73,-32.422 z m -59.46,53.371 c -11.86,0 -21.81,-3.785 -29.85,-11.356 -8.03,-7.566 -12.6,-17.437 -13.69,-29.609 h 87.31 c -1.09,12.172 -5.65,22.043 -13.69,29.609 -8.04,7.571 -18.07,11.356 -30.08,11.356"
       style="fill:#ffffff;fill-opacity:1;fill-rule:nonzero;stroke:none"
       transform="matrix(0.13333333,0,0,-0.13333333,0,177.33333)" />
  </g>
</svg>
