<svg width="54" height="54" viewBox="0 0 54 54" fill="none" xmlns="http://www.w3.org/2000/svg">
<path d="M38.9637 49.5914C38.9637 49.3657 39.1448 49.1827 39.3682 49.1827C39.5916 49.1827 39.7728 49.3658 39.7728 49.5914C39.7728 49.8171 39.5916 50 39.3682 50C39.1448 50 38.9637 49.8171 38.9637 49.5914Z" fill="#EFAE72"/>
<path d="M39.0309 40.5432C39.0309 40.3174 39.212 40.1345 39.4355 40.1345C39.6589 40.1345 39.84 40.3174 39.84 40.5432C39.84 40.7688 39.6589 40.9518 39.4355 40.9518C39.212 40.9518 39.0309 40.7688 39.0309 40.5432Z" fill="#EFAE72"/>
<path d="M36.3916 45.0672C36.3916 44.8415 36.5728 44.6585 36.7962 44.6585C37.0197 44.6585 37.2007 44.8415 37.2007 45.0672C37.2007 45.2928 37.0197 45.4758 36.7962 45.4758C36.5728 45.4758 36.3916 45.2928 36.3916 45.0672Z" fill="#EFAE72"/>
<path d="M33.7427 49.5914C33.7427 49.3657 33.9239 49.1827 34.1472 49.1827C34.3707 49.1827 34.5518 49.3657 34.5518 49.5914C34.5518 49.8171 34.3707 50 34.1472 50C33.9239 50 33.7427 49.8171 33.7427 49.5914Z" fill="#EFAE72"/>
<path d="M41.3234 26.9708C41.3234 26.5033 41.6987 26.1244 42.1615 26.1244C42.6243 26.1244 42.9995 26.5033 42.9995 26.9708C42.9995 27.4382 42.6243 27.8173 42.1615 27.8173C41.6987 27.8173 41.3234 27.4382 41.3234 26.9708Z" fill="#EFAE72"/>
<path d="M38.6745 31.4948C38.6745 31.0273 39.0498 30.6484 39.5125 30.6484C39.9754 30.6484 40.3506 31.0273 40.3506 31.4948C40.3506 31.9622 39.9754 32.3413 39.5125 32.3413C39.0498 32.3413 38.6745 31.9622 38.6745 31.4948Z" fill="#EFAE72"/>
<path d="M36.0256 36.019C36.0256 35.5515 36.4009 35.1726 36.8636 35.1726C37.3264 35.1726 37.7016 35.5515 37.7016 36.019C37.7016 36.4865 37.3264 36.8655 36.8636 36.8655C36.4009 36.8655 36.0256 36.4865 36.0256 36.019Z" fill="#EFAE72"/>
<path d="M33.3766 40.543C33.3766 40.0756 33.7519 39.6966 34.2147 39.6966C34.6775 39.6966 35.0527 40.0756 35.0527 40.543C35.0527 41.0105 34.6775 41.3895 34.2147 41.3895C33.7519 41.3895 33.3766 41.0105 33.3766 40.543Z" fill="#EFAE72"/>
<path d="M30.7373 45.0671C30.7373 44.5996 31.1126 44.2206 31.5754 44.2206C32.0382 44.2206 32.4134 44.5996 32.4134 45.0671C32.4134 45.5346 32.0382 45.9135 31.5754 45.9135C31.1126 45.9135 30.7373 45.5346 30.7373 45.0671Z" fill="#EFAE72"/>
<path d="M28.5219 49.5914C28.5219 49.3657 28.703 49.1827 28.9265 49.1827C29.15 49.1827 29.3311 49.3657 29.3311 49.5914C29.3311 49.8171 29.15 50 28.9265 50C28.703 50 28.5219 49.8171 28.5219 49.5914Z" fill="#EFAE72"/>
<path d="M35.2646 26.9706C35.2646 26.0357 36.015 25.2777 36.9406 25.2777C37.8663 25.2777 38.6167 26.0357 38.6167 26.9706C38.6167 27.9056 37.8663 28.6635 36.9406 28.6635C36.015 28.6635 35.2646 27.9056 35.2646 26.9706Z" fill="#EFAE72"/>
<path d="M32.6156 31.4946C32.6156 30.5598 33.366 29.8018 34.2917 29.8018C35.2174 29.8018 35.9678 30.5598 35.9678 31.4946C35.9678 32.4296 35.2174 33.1875 34.2917 33.1875C33.366 33.1875 32.6156 32.4296 32.6156 31.4946Z" fill="#EFAE72"/>
<path d="M29.9667 36.0189C29.9667 35.0839 30.7171 34.326 31.6428 34.326C32.5684 34.326 33.3188 35.0839 33.3188 36.0189C33.3188 36.9538 32.5684 37.7118 31.6428 37.7118C30.7171 37.7118 29.9667 36.9538 29.9667 36.0189Z" fill="#EFAE72"/>
<path d="M27.3274 40.5432C27.3274 39.6083 28.0778 38.8503 29.0035 38.8503C29.9292 38.8503 30.6795 39.6083 30.6795 40.5432C30.6795 41.4781 29.9292 42.2361 29.0035 42.2361C28.0778 42.2361 27.3274 41.4781 27.3274 40.5432Z" fill="#EFAE72"/>
<path d="M25.5166 45.0671C25.5166 44.5996 25.8918 44.2206 26.3546 44.2206C26.8175 44.2206 27.1927 44.5996 27.1927 45.0671C27.1927 45.5346 26.8175 45.9135 26.3546 45.9135C25.8918 45.9135 25.5166 45.5346 25.5166 45.0671Z" fill="#EFAE72"/>
<path d="M23.3012 49.5914C23.3012 49.3657 23.4823 49.1827 23.7058 49.1827C23.9292 49.1827 24.1104 49.3657 24.1104 49.5914C24.1104 49.8171 23.9292 50 23.7058 50C23.4823 50 23.3012 49.8171 23.3012 49.5914Z" fill="#EFAE72"/>
<path d="M30.0439 26.9706C30.0439 26.0357 30.7942 25.2777 31.7199 25.2777C32.6455 25.2777 33.396 26.0357 33.396 26.9706C33.396 27.9056 32.6455 28.6635 31.7199 28.6635C30.7942 28.6635 30.0439 27.9056 30.0439 26.9706Z" fill="#EFAE72"/>
<path d="M27.3949 31.4946C27.3949 30.5598 28.1453 29.8018 29.071 29.8018C29.9966 29.8018 30.747 30.5598 30.747 31.4946C30.747 32.4296 29.9966 33.1875 29.071 33.1875C28.1453 33.1875 27.3949 32.4296 27.3949 31.4946Z" fill="#EFAE72"/>
<path d="M24.7556 36.0189C24.7556 35.0839 25.506 34.326 26.4317 34.326C27.3573 34.326 28.1077 35.0839 28.1077 36.0189C28.1077 36.9538 27.3573 37.7118 26.4317 37.7118C25.506 37.7118 24.7556 36.9538 24.7556 36.0189Z" fill="#EFAE72"/>
<path d="M22.1067 40.5432C22.1067 39.6083 22.8571 38.8503 23.7828 38.8503C24.7083 38.8503 25.4588 39.6083 25.4588 40.5432C25.4588 41.4781 24.7083 42.2361 23.7828 42.2361C22.8571 42.2361 22.1067 41.4781 22.1067 40.5432Z" fill="#EFAE72"/>
<path d="M20.2959 45.0671C20.2959 44.5996 20.6711 44.2206 21.1339 44.2206C21.5968 44.2206 21.9719 44.5996 21.9719 45.0671C21.9719 45.5346 21.5968 45.9135 21.1339 45.9135C20.6711 45.9135 20.2959 45.5346 20.2959 45.0671Z" fill="#EFAE72"/>
<path d="M18.0802 49.5914C18.0802 49.3657 18.2613 49.1827 18.4848 49.1827C18.7083 49.1827 18.8894 49.3657 18.8894 49.5914C18.8894 49.8171 18.7083 50 18.4848 50C18.2613 50 18.0802 49.8171 18.0802 49.5914Z" fill="#EFAE72"/>
<path d="M25.661 26.9708C25.661 26.5033 26.0362 26.1244 26.499 26.1244C26.9619 26.1244 27.337 26.5033 27.337 26.9708C27.337 27.4382 26.9619 27.8173 26.499 27.8173C26.0362 27.8173 25.661 27.4382 25.661 26.9708Z" fill="#EFAE72"/>
<path d="M23.0217 31.4948C23.0217 31.0273 23.397 30.6484 23.8597 30.6484C24.3226 30.6484 24.6977 31.0273 24.6977 31.4948C24.6977 31.9622 24.3226 32.3413 23.8597 32.3413C23.397 32.3413 23.0217 31.9622 23.0217 31.4948Z" fill="#EFAE72"/>
<path d="M20.3728 36.019C20.3728 35.5515 20.748 35.1726 21.2108 35.1726C21.6736 35.1726 22.0488 35.5515 22.0488 36.019C22.0488 36.4865 21.6736 36.8655 21.2108 36.8655C20.748 36.8655 20.3728 36.4865 20.3728 36.019Z" fill="#EFAE72"/>
<path d="M17.7238 40.543C17.7238 40.0756 18.0991 39.6966 18.5619 39.6966C19.0247 39.6966 19.3999 40.0756 19.3999 40.543C19.3999 41.0105 19.0247 41.3895 18.5619 41.3895C18.0991 41.3895 17.7238 41.0105 17.7238 40.543Z" fill="#EFAE72"/>
<path d="M15.5084 45.0672C15.5084 44.8415 15.6895 44.6585 15.913 44.6585C16.1364 44.6585 16.3176 44.8415 16.3176 45.0672C16.3176 45.2928 16.1364 45.4758 15.913 45.4758C15.6895 45.4758 15.5084 45.2928 15.5084 45.0672Z" fill="#EFAE72"/>
<path d="M12.8595 49.5914C12.8595 49.3657 13.0406 49.1827 13.264 49.1827C13.4874 49.1827 13.6686 49.3657 13.6686 49.5914C13.6686 49.8171 13.4874 50 13.264 50C13.0406 50 12.8595 49.8171 12.8595 49.5914Z" fill="#EFAE72"/>
<path d="M20.8835 26.9708C20.8835 26.7452 21.0646 26.5622 21.288 26.5622C21.5114 26.5622 21.6926 26.7452 21.6926 26.9708C21.6926 27.1965 21.5114 27.3794 21.288 27.3794C21.0646 27.3794 20.8835 27.1965 20.8835 26.9708Z" fill="#EFAE72"/>
<path d="M18.2346 31.4948C18.2346 31.2691 18.4156 31.0862 18.6391 31.0862C18.8625 31.0862 19.0437 31.2691 19.0437 31.4948C19.0437 31.7204 18.8625 31.9034 18.6391 31.9034C18.4156 31.9034 18.2346 31.7204 18.2346 31.4948Z" fill="#EFAE72"/>
<path d="M15.5856 36.0188C15.5856 35.7931 15.7667 35.6102 15.9902 35.6102C16.2136 35.6102 16.3947 35.7931 16.3947 36.0188C16.3947 36.2446 16.2136 36.4275 15.9902 36.4275C15.7667 36.4275 15.5856 36.2446 15.5856 36.0188Z" fill="#EFAE72"/>
<path d="M12.9367 40.5432C12.9367 40.3174 13.1178 40.1345 13.3412 40.1345C13.5646 40.1345 13.7458 40.3174 13.7458 40.5432C13.7458 40.7688 13.5646 40.9518 13.3412 40.9518C13.1178 40.9518 12.9367 40.7688 12.9367 40.5432Z" fill="#EFAE72"/>
<path d="M10.2877 45.0672C10.2877 44.8415 10.4688 44.6585 10.6923 44.6585C10.9157 44.6585 11.0969 44.8415 11.0969 45.0672C11.0969 45.2928 10.9157 45.4758 10.6923 45.4758C10.4688 45.4758 10.2877 45.2928 10.2877 45.0672Z" fill="#EFAE72"/>
<path d="M15.6625 26.9708C15.6625 26.7452 15.8435 26.5622 16.067 26.5622C16.2905 26.5622 16.4716 26.7452 16.4716 26.9708C16.4716 27.1965 16.2905 27.3794 16.067 27.3794C15.8435 27.3794 15.6625 27.1965 15.6625 26.9708Z" fill="#EFAE72"/>
<path d="M13.0135 31.4948C13.0135 31.2691 13.1946 31.0862 13.4181 31.0862C13.6416 31.0862 13.8226 31.2691 13.8226 31.4948C13.8226 31.7204 13.6416 31.9034 13.4181 31.9034C13.1946 31.9034 13.0135 31.7204 13.0135 31.4948Z" fill="#EFAE72"/>
<path d="M10.3646 36.0188C10.3646 35.7931 10.5457 35.6102 10.7691 35.6102C10.9926 35.6102 11.1737 35.7931 11.1737 36.0188C11.1737 36.2446 10.9926 36.4275 10.7691 36.4275C10.5457 36.4275 10.3646 36.2446 10.3646 36.0188Z" fill="#EFAE72"/>
<path d="M7.71564 40.5432C7.71564 40.3174 7.89673 40.1345 8.1202 40.1345C8.34368 40.1345 8.52477 40.3174 8.52477 40.5432C8.52477 40.7688 8.34368 40.9518 8.1202 40.9518C7.89673 40.9518 7.71564 40.7688 7.71564 40.5432Z" fill="#EFAE72"/>
<path d="M10.4417 26.9708C10.4417 26.7452 10.6228 26.5622 10.8463 26.5622C11.0697 26.5622 11.2508 26.7452 11.2508 26.9708C11.2508 27.1965 11.0697 27.3794 10.8463 27.3794C10.6228 27.3794 10.4417 27.1965 10.4417 26.9708Z" fill="#EFAE72"/>
<path d="M7.79278 31.4948C7.79278 31.2691 7.97386 31.0862 8.19734 31.0862C8.42072 31.0862 8.60191 31.2691 8.60191 31.4948C8.60191 31.7204 8.42072 31.9034 8.19734 31.9034C7.97386 31.9034 7.79278 31.7204 7.79278 31.4948Z" fill="#EFAE72"/>
<path d="M5.14384 36.0188C5.14384 35.7931 5.32493 35.6102 5.5484 35.6102C5.77178 35.6102 5.95297 35.7931 5.95297 36.0188C5.95297 36.2446 5.77178 36.4275 5.5484 36.4275C5.32493 36.4275 5.14384 36.2446 5.14384 36.0188Z" fill="#EFAE72"/>
<path d="M5.22104 26.9708C5.22104 26.7452 5.40213 26.5622 5.6256 26.5622C5.84898 26.5622 6.03017 26.7452 6.03017 26.9708C6.03017 27.1965 5.84898 27.3794 5.6256 27.3794C5.40213 27.3794 5.22104 27.1965 5.22104 26.9708Z" fill="#EFAE72"/>
<path d="M2.5721 31.4948C2.5721 31.2691 2.75319 31.0862 2.97667 31.0862C3.20004 31.0862 3.38123 31.2691 3.38123 31.4948C3.38123 31.7204 3.20004 31.9034 2.97667 31.9034C2.75319 31.9034 2.5721 31.7204 2.5721 31.4948Z" fill="#EFAE72"/>
<path d="M-1.11113e-06 26.9708C-1.10844e-06 26.7452 0.181095 26.5622 0.404569 26.5622C0.627947 26.5622 0.809133 26.7452 0.809133 26.9708C0.809133 27.1965 0.627947 27.3794 0.404569 27.3794C0.181095 27.3794 -1.11382e-06 27.1965 -1.11113e-06 26.9708Z" fill="#EFAE72"/>
<path d="M38.9637 4.40863C38.9637 4.18301 39.1448 4 39.3682 4C39.5916 4 39.7728 4.18301 39.7728 4.40863C39.7728 4.63435 39.5916 4.81735 39.3682 4.81735C39.1448 4.81735 38.9637 4.63435 38.9637 4.40863Z" fill="#EFAE72"/>
<path d="M39.0309 13.4664C39.0309 13.2407 39.212 13.0578 39.4355 13.0578C39.6589 13.0578 39.84 13.2407 39.84 13.4664C39.84 13.6921 39.6589 13.8751 39.4355 13.8751C39.212 13.8751 39.0309 13.6921 39.0309 13.4664Z" fill="#EFAE72"/>
<path d="M36.3916 8.93265C36.3916 8.70702 36.5728 8.52411 36.7962 8.52411C37.0197 8.52411 37.2007 8.70702 37.2007 8.93265C37.2007 9.15837 37.0197 9.34137 36.7962 9.34137C36.5728 9.34137 36.3916 9.15837 36.3916 8.93265Z" fill="#EFAE72"/>
<path d="M33.7427 4.40863C33.7427 4.18301 33.9239 4 34.1472 4C34.3707 4 34.5518 4.18301 34.5518 4.40863C34.5518 4.63435 34.3707 4.81735 34.1472 4.81735C33.9239 4.81735 33.7427 4.63435 33.7427 4.40863Z" fill="#EFAE72"/>
<path d="M41.3234 27.0389C41.3234 26.5714 41.6987 26.1925 42.1615 26.1925C42.6243 26.1925 42.9995 26.5714 42.9995 27.0389C42.9995 27.5064 42.6243 27.8854 42.1615 27.8854C41.6987 27.8854 41.3234 27.5064 41.3234 27.0389Z" fill="#EFAE72"/>
<path d="M38.6745 22.5146C38.6745 22.0472 39.0498 21.6682 39.5125 21.6682C39.9754 21.6682 40.3506 22.0472 40.3506 22.5146C40.3506 22.9821 39.9754 23.3611 39.5125 23.3611C39.0498 23.3611 38.6745 22.9821 38.6745 22.5146Z" fill="#EFAE72"/>
<path d="M36.0256 17.9904C36.0256 17.5229 36.4009 17.144 36.8636 17.144C37.3264 17.144 37.7016 17.5229 37.7016 17.9904C37.7016 18.4579 37.3264 18.8369 36.8636 18.8369C36.4009 18.8369 36.0256 18.4579 36.0256 17.9904Z" fill="#EFAE72"/>
<path d="M33.3766 13.4664C33.3766 12.9989 33.7519 12.6199 34.2147 12.6199C34.6775 12.6199 35.0527 12.9989 35.0527 13.4664C35.0527 13.9339 34.6775 14.3128 34.2147 14.3128C33.7519 14.3128 33.3766 13.9339 33.3766 13.4664Z" fill="#EFAE72"/>
<path d="M30.7373 8.93264C30.7373 8.46515 31.1126 8.08619 31.5754 8.08619C32.0382 8.08619 32.4134 8.46515 32.4134 8.93264C32.4134 9.40013 32.0382 9.77908 31.5754 9.77908C31.1126 9.77908 30.7373 9.40013 30.7373 8.93264Z" fill="#EFAE72"/>
<path d="M28.5219 4.40863C28.5219 4.18301 28.703 4 28.9265 4C29.15 4 29.3311 4.18301 29.3311 4.40863C29.3311 4.63435 29.15 4.81735 28.9265 4.81735C28.703 4.81735 28.5219 4.63435 28.5219 4.40863Z" fill="#EFAE72"/>
<path d="M35.2646 27.0388C35.2646 26.1038 36.015 25.3459 36.9406 25.3459C37.8663 25.3459 38.6167 26.1038 38.6167 27.0388C38.6167 27.9738 37.8663 28.7317 36.9406 28.7317C36.015 28.7317 35.2646 27.9738 35.2646 27.0388Z" fill="#EFAE72"/>
<path d="M32.6156 22.5145C32.6156 21.5795 33.366 20.8216 34.2917 20.8216C35.2174 20.8216 35.9678 21.5795 35.9678 22.5145C35.9678 23.4495 35.2174 24.2074 34.2917 24.2074C33.366 24.2074 32.6156 23.4495 32.6156 22.5145Z" fill="#EFAE72"/>
<path d="M29.9667 17.9905C29.9667 17.0555 30.7171 16.2976 31.6428 16.2976C32.5684 16.2976 33.3188 17.0555 33.3188 17.9905C33.3188 18.9255 32.5684 19.6834 31.6428 19.6834C30.7171 19.6834 29.9667 18.9255 29.9667 17.9905Z" fill="#EFAE72"/>
<path d="M27.3274 13.4665C27.3274 12.5316 28.0778 11.7736 29.0035 11.7736C29.9292 11.7736 30.6795 12.5316 30.6795 13.4665C30.6795 14.4014 29.9292 15.1593 29.0035 15.1593C28.0778 15.1593 27.3274 14.4014 27.3274 13.4665Z" fill="#EFAE72"/>
<path d="M25.5166 8.93264C25.5166 8.46515 25.8918 8.08619 26.3546 8.08619C26.8175 8.08619 27.1927 8.46515 27.1927 8.93264C27.1927 9.40013 26.8175 9.77908 26.3546 9.77908C25.8918 9.77908 25.5166 9.40013 25.5166 8.93264Z" fill="#EFAE72"/>
<path d="M23.3012 4.40863C23.3012 4.18301 23.4823 4 23.7058 4C23.9292 4 24.1104 4.18301 24.1104 4.40863C24.1104 4.63435 23.9292 4.81735 23.7058 4.81735C23.4823 4.81735 23.3012 4.63435 23.3012 4.40863Z" fill="#EFAE72"/>
<path d="M30.0439 27.0388C30.0439 26.1038 30.7942 25.3459 31.7199 25.3459C32.6455 25.3459 33.396 26.1038 33.396 27.0388C33.396 27.9738 32.6455 28.7317 31.7199 28.7317C30.7942 28.7317 30.0439 27.9738 30.0439 27.0388Z" fill="#EFAE72"/>
<path d="M27.3949 22.5145C27.3949 21.5795 28.1453 20.8216 29.071 20.8216C29.9966 20.8216 30.747 21.5795 30.747 22.5145C30.747 23.4495 29.9966 24.2074 29.071 24.2074C28.1453 24.2074 27.3949 23.4495 27.3949 22.5145Z" fill="#EFAE72"/>
<path d="M24.7556 17.9905C24.7556 17.0555 25.506 16.2976 26.4317 16.2976C27.3573 16.2976 28.1077 17.0555 28.1077 17.9905C28.1077 18.9255 27.3573 19.6834 26.4317 19.6834C25.506 19.6834 24.7556 18.9255 24.7556 17.9905Z" fill="#EFAE72"/>
<path d="M22.1067 13.4665C22.1067 12.5316 22.8571 11.7736 23.7828 11.7736C24.7083 11.7736 25.4588 12.5316 25.4588 13.4665C25.4588 14.4014 24.7083 15.1593 23.7828 15.1593C22.8571 15.1593 22.1067 14.4014 22.1067 13.4665Z" fill="#EFAE72"/>
<path d="M20.2959 8.93264C20.2959 8.46515 20.6711 8.08619 21.1339 8.08619C21.5968 8.08619 21.9719 8.46515 21.9719 8.93264C21.9719 9.40013 21.5968 9.77908 21.1339 9.77908C20.6711 9.77908 20.2959 9.40013 20.2959 8.93264Z" fill="#EFAE72"/>
<path d="M18.0802 4.40863C18.0802 4.183 18.2613 4 18.4848 4C18.7083 4 18.8894 4.183 18.8894 4.40863C18.8894 4.63435 18.7083 4.81735 18.4848 4.81735C18.2613 4.81735 18.0802 4.63435 18.0802 4.40863Z" fill="#EFAE72"/>
<path d="M25.661 27.0389C25.661 26.5714 26.0362 26.1925 26.499 26.1925C26.9619 26.1925 27.337 26.5714 27.337 27.0389C27.337 27.5064 26.9619 27.8854 26.499 27.8854C26.0362 27.8854 25.661 27.5064 25.661 27.0389Z" fill="#EFAE72"/>
<path d="M23.0217 22.5146C23.0217 22.0472 23.397 21.6682 23.8597 21.6682C24.3226 21.6682 24.6977 22.0472 24.6977 22.5146C24.6977 22.9821 24.3226 23.3611 23.8597 23.3611C23.397 23.3611 23.0217 22.9821 23.0217 22.5146Z" fill="#EFAE72"/>
<path d="M20.3728 17.9904C20.3728 17.5229 20.748 17.144 21.2108 17.144C21.6736 17.144 22.0488 17.5229 22.0488 17.9904C22.0488 18.4579 21.6736 18.8369 21.2108 18.8369C20.748 18.8369 20.3728 18.4579 20.3728 17.9904Z" fill="#EFAE72"/>
<path d="M17.7238 13.4664C17.7238 12.9989 18.0991 12.6199 18.5619 12.6199C19.0247 12.6199 19.3999 12.9989 19.3999 13.4664C19.3999 13.9339 19.0247 14.3128 18.5619 14.3128C18.0991 14.3128 17.7238 13.9339 17.7238 13.4664Z" fill="#EFAE72"/>
<path d="M15.5084 8.93265C15.5084 8.70702 15.6895 8.52411 15.913 8.52411C16.1364 8.52411 16.3176 8.70702 16.3176 8.93265C16.3176 9.15837 16.1364 9.34137 15.913 9.34137C15.6895 9.34137 15.5084 9.15837 15.5084 8.93265Z" fill="#EFAE72"/>
<path d="M12.8595 4.40863C12.8595 4.183 13.0406 4 13.2641 4C13.4874 4 13.6686 4.183 13.6686 4.40863C13.6686 4.63435 13.4874 4.81735 13.2641 4.81735C13.0406 4.81735 12.8595 4.63435 12.8595 4.40863Z" fill="#EFAE72"/>
<path d="M20.8835 27.0387C20.8835 26.8131 21.0646 26.6301 21.288 26.6301C21.5114 26.6301 21.6926 26.8131 21.6926 27.0387C21.6926 27.2645 21.5114 27.4474 21.288 27.4474C21.0646 27.4474 20.8835 27.2645 20.8835 27.0387Z" fill="#EFAE72"/>
<path d="M18.2346 22.5147C18.2346 22.289 18.4156 22.1061 18.6391 22.1061C18.8625 22.1061 19.0437 22.289 19.0437 22.5147C19.0437 22.7404 18.8625 22.9233 18.6391 22.9233C18.4156 22.9233 18.2346 22.7404 18.2346 22.5147Z" fill="#EFAE72"/>
<path d="M15.5856 17.9907C15.5856 17.765 15.7667 17.5821 15.9902 17.5821C16.2136 17.5821 16.3947 17.765 16.3947 17.9907C16.3947 18.2164 16.2136 18.3993 15.9902 18.3993C15.7667 18.3993 15.5856 18.2164 15.5856 17.9907Z" fill="#EFAE72"/>
<path d="M12.9367 13.4664C12.9367 13.2407 13.1178 13.0578 13.3412 13.0578C13.5646 13.0578 13.7458 13.2407 13.7458 13.4664C13.7458 13.6921 13.5646 13.8751 13.3412 13.8751C13.1178 13.8751 12.9367 13.6921 12.9367 13.4664Z" fill="#EFAE72"/>
<path d="M10.2877 8.93265C10.2877 8.70702 10.4688 8.52411 10.6923 8.52411C10.9157 8.52411 11.0969 8.70702 11.0969 8.93265C11.0969 9.15837 10.9157 9.34137 10.6923 9.34137C10.4688 9.34137 10.2877 9.15837 10.2877 8.93265Z" fill="#EFAE72"/>
<path d="M15.6625 27.0387C15.6625 26.8131 15.8435 26.6301 16.067 26.6301C16.2905 26.6301 16.4716 26.8131 16.4716 27.0387C16.4716 27.2645 16.2905 27.4474 16.067 27.4474C15.8435 27.4474 15.6625 27.2645 15.6625 27.0387Z" fill="#EFAE72"/>
<path d="M13.0135 22.5147C13.0135 22.289 13.1946 22.1061 13.4181 22.1061C13.6416 22.1061 13.8226 22.289 13.8226 22.5147C13.8226 22.7404 13.6416 22.9233 13.4181 22.9233C13.1946 22.9233 13.0135 22.7404 13.0135 22.5147Z" fill="#EFAE72"/>
<path d="M10.3646 17.9907C10.3646 17.765 10.5457 17.5821 10.7691 17.5821C10.9926 17.5821 11.1737 17.765 11.1737 17.9907C11.1737 18.2164 10.9926 18.3993 10.7691 18.3993C10.5457 18.3993 10.3646 18.2164 10.3646 17.9907Z" fill="#EFAE72"/>
<path d="M7.71564 13.4664C7.71564 13.2407 7.89673 13.0578 8.1202 13.0578C8.34368 13.0578 8.52477 13.2407 8.52477 13.4664C8.52477 13.6921 8.34368 13.8751 8.1202 13.8751C7.89673 13.8751 7.71564 13.6921 7.71564 13.4664Z" fill="#EFAE72"/>
<path d="M10.4417 27.0387C10.4417 26.8131 10.6228 26.6301 10.8463 26.6301C11.0697 26.6301 11.2508 26.8131 11.2508 27.0387C11.2508 27.2645 11.0697 27.4474 10.8463 27.4474C10.6228 27.4474 10.4417 27.2645 10.4417 27.0387Z" fill="#EFAE72"/>
<path d="M7.79278 22.5147C7.79278 22.289 7.97386 22.1061 8.19734 22.1061C8.42072 22.1061 8.60191 22.289 8.60191 22.5147C8.60191 22.7404 8.42072 22.9233 8.19734 22.9233C7.97386 22.9233 7.79278 22.7404 7.79278 22.5147Z" fill="#EFAE72"/>
<path d="M5.14384 17.9907C5.14384 17.765 5.32493 17.5821 5.5484 17.5821C5.77178 17.5821 5.95297 17.765 5.95297 17.9907C5.95297 18.2164 5.77178 18.3993 5.5484 18.3993C5.32493 18.3993 5.14384 18.2164 5.14384 17.9907Z" fill="#EFAE72"/>
<path d="M5.22104 27.0387C5.22104 26.8131 5.40213 26.6301 5.6256 26.6301C5.84898 26.6301 6.03017 26.8131 6.03017 27.0387C6.03017 27.2645 5.84898 27.4474 5.6256 27.4474C5.40213 27.4474 5.22104 27.2645 5.22104 27.0387Z" fill="#EFAE72"/>
<path d="M2.5721 22.5147C2.5721 22.289 2.75319 22.1061 2.97667 22.1061C3.20004 22.1061 3.38123 22.289 3.38123 22.5147C3.38123 22.7404 3.20004 22.9233 2.97667 22.9233C2.75319 22.9233 2.5721 22.7404 2.5721 22.5147Z" fill="#EFAE72"/>
<path d="M-1.11194e-06 27.0387C-1.10925e-06 26.8131 0.181095 26.6301 0.404569 26.6301C0.627947 26.6301 0.809133 26.8131 0.809133 27.0387C0.809133 27.2645 0.627947 27.4474 0.404569 27.4474C0.181095 27.4474 -1.11463e-06 27.2645 -1.11194e-06 27.0387Z" fill="#EFAE72"/>
<path d="M53.1909 27.5057C53.1909 27.2801 53.372 27.0971 53.5954 27.0971C53.8188 27.0971 54 27.2801 54 27.5057C54 27.7314 53.8188 27.9144 53.5954 27.9144C53.372 27.9144 53.1909 27.7314 53.1909 27.5057Z" fill="#EFAE72"/>
<path d="M50.5419 32.0299C50.5419 31.8043 50.723 31.6214 50.9465 31.6214C51.1699 31.6214 51.3511 31.8043 51.3511 32.0299C51.3511 32.2557 51.1699 32.4387 50.9465 32.4387C50.723 32.4387 50.5419 32.2557 50.5419 32.0299Z" fill="#EFAE72"/>
<path d="M47.893 36.5542C47.893 36.3285 48.0741 36.1456 48.2976 36.1456C48.5209 36.1456 48.7021 36.3285 48.7021 36.5542C48.7021 36.7799 48.5209 36.9629 48.2976 36.9629C48.0741 36.9629 47.893 36.7799 47.893 36.5542Z" fill="#EFAE72"/>
<path d="M45.2441 41.0783C45.2441 40.8526 45.4252 40.6696 45.6486 40.6696C45.872 40.6696 46.0532 40.8526 46.0532 41.0783C46.0532 41.304 45.872 41.4869 45.6486 41.4869C45.4252 41.4869 45.2441 41.304 45.2441 41.0783Z" fill="#EFAE72"/>
<path d="M42.5951 45.6023C42.5951 45.3767 42.7762 45.1936 42.9997 45.1936C43.2231 45.1936 43.4043 45.3767 43.4043 45.6023C43.4043 45.828 43.2231 46.0109 42.9997 46.0109C42.7762 46.0109 42.5951 45.828 42.5951 45.6023Z" fill="#EFAE72"/>
<path d="M47.9699 27.5057C47.9699 27.2801 48.1511 27.0971 48.3744 27.0971C48.5979 27.0971 48.779 27.2801 48.779 27.5057C48.779 27.7314 48.5979 27.9144 48.3744 27.9144C48.1511 27.9143 47.9699 27.7314 47.9699 27.5057Z" fill="#EFAE72"/>
<path d="M45.3209 32.0299C45.3209 31.8043 45.5021 31.6214 45.7255 31.6214C45.949 31.6214 46.1301 31.8043 46.1301 32.0299C46.1301 32.2557 45.949 32.4387 45.7255 32.4387C45.5021 32.4387 45.3209 32.2557 45.3209 32.0299Z" fill="#EFAE72"/>
<path d="M42.672 36.5542C42.672 36.3285 42.8532 36.1456 43.0766 36.1456C43.3 36.1456 43.4811 36.3285 43.4811 36.5542C43.4811 36.7799 43.3 36.9629 43.0766 36.9629C42.8532 36.9629 42.672 36.7799 42.672 36.5542Z" fill="#EFAE72"/>
<path d="M53.1909 27.5739C53.1909 27.3482 53.372 27.1653 53.5954 27.1653C53.8188 27.1653 54 27.3482 54 27.5739C54 27.7995 53.8188 27.9825 53.5954 27.9825C53.372 27.9825 53.1909 27.7995 53.1909 27.5739Z" fill="#EFAE72"/>
<path d="M50.5419 23.0499C50.5419 22.8242 50.723 22.6412 50.9465 22.6412C51.1699 22.6412 51.3511 22.8242 51.3511 23.0499C51.3511 23.2755 51.1699 23.4585 50.9465 23.4585C50.723 23.4585 50.5419 23.2755 50.5419 23.0499Z" fill="#EFAE72"/>
<path d="M47.893 18.5256C47.893 18.3 48.0741 18.117 48.2976 18.117C48.5209 18.117 48.7021 18.3 48.7021 18.5256C48.7021 18.7513 48.5209 18.9342 48.2976 18.9342C48.0741 18.9342 47.893 18.7513 47.893 18.5256Z" fill="#EFAE72"/>
<path d="M45.2441 14.0016C45.2441 13.7759 45.4252 13.593 45.6486 13.593C45.872 13.593 46.0532 13.7759 46.0532 14.0016C46.0532 14.2273 45.872 14.4102 45.6486 14.4102C45.4252 14.4102 45.2441 14.2273 45.2441 14.0016Z" fill="#EFAE72"/>
<path d="M42.5951 9.46783C42.5951 9.24211 42.7762 9.05921 42.9997 9.05921C43.2231 9.05921 43.4043 9.24211 43.4043 9.46783C43.4043 9.69355 43.2231 9.87647 42.9997 9.87647C42.7762 9.87647 42.5951 9.69355 42.5951 9.46783Z" fill="#EFAE72"/>
<path d="M47.9699 27.5739C47.9699 27.3482 48.1511 27.1653 48.3744 27.1653C48.5979 27.1653 48.779 27.3482 48.779 27.5739C48.779 27.7995 48.5979 27.9825 48.3744 27.9825C48.1511 27.9825 47.9699 27.7995 47.9699 27.5739Z" fill="#EFAE72"/>
<path d="M45.3209 23.0499C45.3209 22.8242 45.5021 22.6412 45.7255 22.6412C45.949 22.6412 46.1301 22.8242 46.1301 23.0499C46.1301 23.2755 45.949 23.4585 45.7255 23.4585C45.5021 23.4585 45.3209 23.2755 45.3209 23.0499Z" fill="#EFAE72"/>
<path d="M42.672 18.5256C42.672 18.3 42.8532 18.117 43.0766 18.117C43.3 18.117 43.4811 18.3 43.4811 18.5256C43.4811 18.7513 43.3 18.9342 43.0766 18.9342C42.8532 18.9342 42.672 18.7513 42.672 18.5256Z" fill="#EFAE72"/>
</svg>
